<svg width="33" height="25" viewBox="0 0 33 25" fill="none" xmlns="http://www.w3.org/2000/svg">
<path d="M25.5758 1.27089H32.2987V18.0779H14.3712V0.474304L25.5758 11.679V1.27089ZM15.4916 16.9574H29.2611L15.4916 3.18794V16.9574ZM29.7338 15.837L30.8543 16.9574H31.1782V2.39136H26.6963V3.51182H28.9372V4.63229H26.6963V5.75276H28.9372V6.87323H26.6963V7.9937H30.0577V9.11417H26.6963V10.2346H28.9372V11.3551H26.6963V12.4756H28.9372V13.596H27.4929L28.6134 14.7165H30.0577V15.837H29.7338ZM17.7326 9.43805L23.011 14.7165H17.7326V9.43805ZM18.853 12.1517V13.596H20.2974L18.853 12.1517Z" fill="black"/>
<path d="M4 23C3.45 23 2.97933 22.8043 2.588 22.413C2.19667 22.0217 2.00067 21.5507 2 21V9C2 8.45 2.196 7.97933 2.588 7.588C2.98 7.19667 3.45067 7.00067 4 7H8L12 3L16 7H20C20.55 7 21.021 7.196 21.413 7.588C21.805 7.98 22.0007 8.45067 22 9V21C22 21.55 21.8043 22.021 21.413 22.413C21.0217 22.805 20.5507 23.0007 20 23H4ZM4 21H20V9H4V21ZM6 19H18L14.25 14L11.25 18L9 15L6 19ZM17.5 14C17.9167 14 18.271 13.8543 18.563 13.563C18.855 13.2717 19.0007 12.9173 19 12.5C18.9993 12.0827 18.8537 11.7287 18.563 11.438C18.2723 11.1473 17.918 11.0013 17.5 11C17.082 10.9987 16.728 11.1447 16.438 11.438C16.148 11.7313 16.002 12.0853 16 12.5C15.998 12.9147 16.144 13.269 16.438 13.563C16.732 13.857 17.086 14.0027 17.5 14ZM10.1 7H13.9L12 5.1L10.1 7Z" fill="black"/>
</svg>
