<svg width="18" height="18" viewBox="0 0 18 18" fill="none" xmlns="http://www.w3.org/2000/svg">
<g clip-path="url(#clip0_361_679)">
<path d="M17.331 8.97182C17.331 11.1813 16.4533 13.3004 14.8909 14.8627C13.3285 16.4251 11.2095 17.3028 9 17.3028C6.79049 17.3028 4.67147 16.4251 3.10911 14.8627C1.54674 13.3004 0.669018 11.1813 0.669018 8.97182M17.331 8.97182C17.331 6.76231 16.4533 4.64329 14.8909 3.08093C13.3285 1.51856 11.2095 0.640839 9 0.640839C6.79049 0.640839 4.67147 1.51856 3.10911 3.08093C1.54674 4.64329 0.669018 6.76231 0.669018 8.97182M17.331 8.97182H0.669018" stroke="black" stroke-linecap="round" stroke-linejoin="round"/>
<path d="M12.2042 8.97182C12.0468 12.0184 10.9247 14.936 9 17.3028C7.07531 14.936 5.95317 12.0184 5.79578 8.97182C5.95317 5.92526 7.07531 3.00767 9 0.640839C10.9247 3.00767 12.0468 5.92526 12.2042 8.97182Z" stroke="black" stroke-linecap="round" stroke-linejoin="round"/>
</g>
<defs>
<clipPath id="clip0_361_679">
<rect width="17.9437" height="17.9437" fill="white" transform="translate(0.0281715)"/>
</clipPath>
</defs>
</svg>
