<svg width="22" height="20" viewBox="0 0 22 20" fill="none" xmlns="http://www.w3.org/2000/svg">
<path d="M0.969055 19.5273V3.74992H7.60121L11.1117 0.239441L14.6233 3.74992H21.2543V19.5273H0.969055ZM2.09601 18.4004H20.1274V4.87688H2.09601V18.4004ZM6.04037 15.583H16.3566L13.1706 11.3343L10.2236 15.0623L8.25146 12.6788L6.04037 15.583ZM16.6653 10.5117C17.0154 10.5117 17.3115 10.3888 17.5534 10.1432C17.7961 9.89823 17.9174 9.60034 17.9174 9.24948C17.9174 8.89862 17.7946 8.60223 17.5489 8.36031C17.3032 8.11839 17.0053 7.99743 16.6552 7.99743C16.3043 7.99743 16.0076 8.12026 15.7649 8.36594C15.5237 8.61087 15.4031 8.90876 15.4031 9.25962C15.4031 9.61048 15.5256 9.90687 15.7705 10.1488C16.0155 10.3907 16.3137 10.5117 16.6653 10.5117ZM9.01329 3.74992H13.2101L11.1117 1.65265L9.01329 3.74992Z" fill="black"/>
</svg>
