<svg width="12" height="12" viewBox="0 0 12 12" fill="none" xmlns="http://www.w3.org/2000/svg">
<path d="M6 11.978C5.829 11.978 5.67 11.9335 5.5215 11.8565L4.007 10.9875C3.7795 10.8665 3.8935 10.8225 3.962 10.8005C4.269 10.7015 4.326 10.6795 4.645 10.503C4.679 10.481 4.725 10.492 4.759 10.514L5.9205 11.1855C5.9655 11.2075 6.023 11.2075 6.057 11.1855L10.6005 8.64349C10.6455 8.62149 10.6685 8.57749 10.6685 8.52249V3.44949C10.6685 3.39449 10.646 3.35049 10.6005 3.32849L6.057 0.79799C6.0115 0.77599 5.9545 0.77599 5.9205 0.79799L1.377 3.32849C1.3315 3.35049 1.3085 3.40549 1.3085 3.44949V8.52249C1.3085 8.56649 1.3315 8.62149 1.377 8.64349L2.618 9.33699C3.29 9.66699 3.711 9.28199 3.711 8.89699V3.88999C3.711 3.82399 3.768 3.75799 3.848 3.75799H4.4285C4.497 3.75799 4.565 3.81299 4.565 3.88999V8.89649C4.565 9.76599 4.0755 10.272 3.2215 10.272C2.9595 10.272 2.7545 10.272 2.174 9.99699L0.9785 9.33699C0.834545 9.25765 0.714331 9.14139 0.630229 9.00016C0.546127 8.85894 0.501175 8.69785 0.5 8.53349V3.46049C0.5 3.13049 0.682 2.82249 0.9785 2.65749L5.522 0.11499C5.66998 0.03933 5.8338 -0.00012207 6 -0.00012207C6.1662 -0.00012207 6.33002 0.03933 6.478 0.11499L11.022 2.65699C11.318 2.82199 11.5 3.12999 11.5 3.45999V8.53299C11.5 8.86299 11.318 9.17099 11.022 9.33649L6.4785 11.878C6.32748 11.9435 6.1646 11.9772 6 11.977M7.4005 8.48849C5.408 8.48849 4.998 7.60849 4.998 6.85999C4.998 6.79399 5.055 6.72799 5.1345 6.72799H5.7265C5.795 6.72799 5.8515 6.77199 5.8515 6.83799C5.943 7.42099 6.205 7.70699 7.412 7.70699C8.3685 7.70699 8.7785 7.49799 8.7785 7.00299C8.7785 6.71699 8.6645 6.50799 7.173 6.36499C5.9315 6.24349 5.1575 5.97999 5.1575 5.02249C5.1575 4.13099 5.9315 3.60249 7.23 3.60249C8.6875 3.60249 9.405 4.08699 9.496 5.14349C9.49489 5.17924 9.48285 5.21379 9.4615 5.24249C9.439 5.26449 9.405 5.28649 9.3705 5.28649H8.7785C8.74974 5.28579 8.72199 5.27576 8.69944 5.2579C8.67689 5.24004 8.66076 5.21532 8.6535 5.18749C8.5165 4.58249 8.1635 4.38399 7.23 4.38399C6.182 4.38399 6.057 4.73599 6.057 5.00049C6.057 5.31949 6.205 5.41849 7.617 5.59449C9.0175 5.77049 9.678 6.02349 9.678 6.96949C9.6665 7.93849 8.847 8.48849 7.4005 8.48849Z" fill="black"/>
</svg>
