<svg width="15" height="9" viewBox="0 0 15 9" fill="none" xmlns="http://www.w3.org/2000/svg">
<path d="M5.79256 8.48438H4.23388L3.78656 6.80669H2.01538L1.59037 8.48438H0.0625L2.21566 0.510319H3.57884L5.79256 8.48438ZM2.48234 4.97335H3.30313L2.88875 3.36685L2.48234 4.97335ZM7.89419 8.61666C7.58686 8.63238 7.28014 8.57572 6.99871 8.45125C6.71728 8.32677 6.46901 8.13796 6.27388 7.90001C5.8435 7.29125 5.60317 6.56861 5.58325 5.82335L5.55881 5.52266L6.95175 5.32716L6.98469 5.59279C7.00286 5.91397 7.10648 6.22447 7.28484 6.49219C7.36007 6.58282 7.45533 6.65471 7.56311 6.70219C7.67089 6.74967 7.78824 6.77144 7.90588 6.76579C8.02146 6.77585 8.13782 6.75967 8.24628 6.71845C8.35473 6.67724 8.45248 6.61207 8.53222 6.52779C8.64963 6.39408 8.71357 6.22175 8.71178 6.04382C8.71619 5.9554 8.69596 5.86748 8.65334 5.78988C8.58208 5.68698 8.48319 5.60632 8.36806 5.55719C8.28997 5.51788 8.08438 5.43076 7.55844 5.24269C7.0742 5.10126 6.64024 4.82486 6.30734 4.44582C5.93964 3.95362 5.74939 3.35143 5.76759 2.73732C5.76376 2.31638 5.85092 1.89957 6.02313 1.51544C6.17387 1.16515 6.42726 0.868783 6.74988 0.665444C7.07816 0.472443 7.45401 0.375443 7.83469 0.385475C8.13237 0.367715 8.43007 0.419811 8.70403 0.537604C8.97799 0.655396 9.2206 0.83562 9.4125 1.06388C9.8051 1.59677 10.0106 2.2445 9.99688 2.90626L10.0043 3.19951L8.59597 3.28876L8.5625 3.03269C8.55458 2.80457 8.48178 2.58343 8.35266 2.39519C8.28285 2.3275 8.19924 2.27569 8.10754 2.24332C8.01585 2.21096 7.91824 2.19879 7.82141 2.20766C7.71377 2.20043 7.6058 2.21558 7.50431 2.25215C7.40282 2.28873 7.31 2.34593 7.23172 2.42016C7.20407 2.44886 7.18271 2.483 7.16899 2.52041C7.15527 2.55782 7.1495 2.59768 7.15203 2.63744C7.14992 2.71853 7.17879 2.79737 7.23278 2.85791C7.48369 3.06928 7.78121 3.21803 8.10084 3.29194C8.51466 3.41657 8.90674 3.60437 9.26322 3.84869C9.54887 4.07253 9.77072 4.36748 9.90656 4.70401C10.0741 5.12937 10.1542 5.58415 10.1419 6.04116C10.1451 6.50571 10.0508 6.96577 9.86512 7.3916C9.70796 7.77654 9.43458 8.10284 9.08313 8.32501C8.72073 8.52858 8.30965 8.62942 7.89419 8.61666ZM12.0475 8.48438H10.6131V0.510319H12.4725C12.9029 0.485343 13.3346 0.526007 13.7528 0.630913C14.1257 0.793492 14.4258 1.08752 14.5959 1.45701C14.8395 1.96141 14.9567 2.5175 14.9375 3.07732C14.9483 3.51384 14.8821 3.94885 14.742 4.36241C14.6362 4.67105 14.4656 4.95346 14.2416 5.19063C14.0742 5.36932 13.866 5.50476 13.6349 5.58535C13.2696 5.67182 12.8944 5.70951 12.5192 5.69744H12.0454L12.0475 8.48438ZM12.0475 3.85348H12.413C12.665 3.87702 12.9191 3.84398 13.1568 3.75679C13.2589 3.69819 13.3397 3.60847 13.3873 3.50073C13.4442 3.37354 13.4718 3.2352 13.4681 3.09591C13.4763 2.93353 13.4377 2.77221 13.357 2.63107C13.2912 2.51512 13.1821 2.42994 13.0537 2.39413C12.8197 2.35251 12.5818 2.33719 12.3445 2.34844H12.0454L12.0475 3.85348Z" fill="#080808"/>
</svg>
