<svg width="12" height="10" viewBox="0 0 12 10" fill="none" xmlns="http://www.w3.org/2000/svg">
<path d="M6 4.05501C6.515 4.05501 6.935 4.47501 6.935 5.00001C6.935 5.50001 6.515 5.92501 6 5.92501C5.485 5.92501 5.065 5.50001 5.065 5.00001C5.065 4.47501 5.485 4.05501 6 4.05501ZM3.685 9.00002C4 9.19002 4.69 8.90001 5.485 8.15001C5.225 7.85501 4.97 7.53502 4.73 7.20002C4.32711 7.16117 3.92655 7.10109 3.53 7.02002C3.275 8.09002 3.37 8.82502 3.685 9.00002ZM4.04 6.13001L3.895 5.87501C3.84 6.02001 3.785 6.16501 3.75 6.30502C3.885 6.33501 4.035 6.36002 4.19 6.38502L4.04 6.13001ZM7.31 5.75001L7.715 5.00001L7.31 4.25001C7.16 3.98501 7 3.75001 6.855 3.51501C6.585 3.50001 6.3 3.50001 6 3.50001C5.7 3.50001 5.415 3.50001 5.145 3.51501C5 3.75001 4.84 3.98501 4.69 4.25001L4.285 5.00001L4.69 5.75001C4.84 6.01502 5 6.25002 5.145 6.48502C5.415 6.50002 5.7 6.50002 6 6.50002C6.3 6.50002 6.585 6.50002 6.855 6.48502C7 6.25002 7.16 6.01502 7.31 5.75001ZM6 2.39001C5.905 2.50001 5.805 2.61501 5.705 2.75001H6.295C6.195 2.61501 6.095 2.50001 6 2.39001ZM6 7.61001C6.095 7.50001 6.195 7.38502 6.295 7.25002H5.705C5.805 7.38502 5.905 7.50001 6 7.61001ZM8.31 1.00001C8 0.810014 7.31 1.10001 6.515 1.85001C6.775 2.14501 7.03 2.46501 7.27 2.80001C7.68 2.84001 8.085 2.90001 8.47 2.98001C8.725 1.91001 8.63 1.17501 8.31 1.00001ZM7.96 3.87001L8.105 4.12501C8.16 3.98001 8.215 3.83501 8.25 3.69501C8.115 3.66501 7.965 3.64001 7.81 3.61501L7.96 3.87001ZM8.685 0.345014C9.42 0.765014 9.5 1.87001 9.19 3.16001C10.46 3.53501 11.375 4.15501 11.375 5.00001C11.375 5.84502 10.46 6.46502 9.19 6.84002C9.5 8.13002 9.42 9.23501 8.685 9.65501C7.955 10.075 6.96 9.59502 6 8.68002C5.04 9.59502 4.045 10.075 3.31 9.65501C2.58 9.23501 2.5 8.13002 2.81 6.84002C1.54 6.46502 0.625 5.84502 0.625 5.00001C0.625 4.15501 1.54 3.53501 2.81 3.16001C2.5 1.87001 2.58 0.765014 3.31 0.345014C4.045 -0.0749857 5.04 0.405014 6 1.32001C6.96 0.405014 7.955 -0.0749857 8.685 0.345014ZM8.54 5.00001C8.71 5.37501 8.86 5.75002 8.985 6.13001C10.035 5.81502 10.625 5.36502 10.625 5.00001C10.625 4.63502 10.035 4.18501 8.985 3.87001C8.86 4.25001 8.71 4.62501 8.54 5.00001ZM3.46 5.00001C3.29 4.62501 3.14 4.25001 3.015 3.87001C1.965 4.18501 1.375 4.63502 1.375 5.00001C1.375 5.36502 1.965 5.81502 3.015 6.13001C3.14 5.75002 3.29 5.37501 3.46 5.00001ZM7.96 6.13001L7.81 6.38502C7.965 6.36002 8.115 6.33501 8.25 6.30502C8.215 6.16501 8.16 6.02001 8.105 5.87501L7.96 6.13001ZM6.515 8.15001C7.31 8.90001 8 9.19002 8.31 9.00002C8.63 8.82502 8.725 8.09002 8.47 7.02002C8.085 7.10002 7.68 7.16002 7.27 7.20002C7.03 7.53502 6.775 7.85501 6.515 8.15001ZM4.04 3.87001L4.19 3.61501C4.035 3.64001 3.885 3.66501 3.75 3.69501C3.785 3.83501 3.84 3.98001 3.895 4.12501L4.04 3.87001ZM5.485 1.85001C4.69 1.10001 4 0.810014 3.685 1.00001C3.37 1.17501 3.275 1.91001 3.53 2.98001C3.92655 2.89894 4.32711 2.83886 4.73 2.80001C4.97 2.46501 5.225 2.14501 5.485 1.85001Z" fill="black"/>
</svg>
