<svg width="13" height="12" viewBox="0 0 13 12" fill="none" xmlns="http://www.w3.org/2000/svg">
<path d="M6.5 5.41667C8.0625 5.41667 9.39063 5.18819 10.4844 4.73125C11.5781 4.27431 12.125 3.725 12.125 3.08333C12.125 2.44167 11.5781 1.89236 10.4844 1.43542C9.39063 0.978472 8.0625 0.75 6.5 0.75C4.9375 0.75 3.60938 0.978472 2.51563 1.43542C1.42188 1.89236 0.875 2.44167 0.875 3.08333C0.875 3.725 1.42188 4.27431 2.51563 4.73125C3.60938 5.18819 4.9375 5.41667 6.5 5.41667ZM6.5 6.875C6.92708 6.875 7.46104 6.83358 8.10188 6.75075C8.74271 6.66792 9.35979 6.53433 9.95313 6.35C10.5465 6.16567 11.0569 5.92514 11.4844 5.62842C11.9119 5.33169 12.1254 4.96944 12.125 4.54167V6C12.125 6.42778 11.9115 6.79003 11.4844 7.08675C11.0573 7.38347 10.5469 7.624 9.95313 7.80833C9.35938 7.99267 8.74229 8.12644 8.10188 8.20967C7.46146 8.29289 6.9275 8.33411 6.5 8.33333C6.0725 8.33256 5.53875 8.29114 4.89875 8.20908C4.25875 8.12703 3.64146 7.99345 3.04688 7.80833C2.45229 7.62322 1.94188 7.38269 1.51563 7.08675C1.08938 6.79081 0.875833 6.42856 0.875 6V4.54167C0.875 4.96944 1.08854 5.33169 1.51563 5.62842C1.94271 5.92514 2.45313 6.16567 3.04688 6.35C3.64063 6.53433 4.25792 6.66811 4.89875 6.75133C5.53958 6.83456 6.07333 6.87578 6.5 6.875ZM6.5 9.79167C6.92708 9.79167 7.46104 9.75025 8.10188 9.66742C8.74271 9.58458 9.35979 9.451 9.95313 9.26667C10.5465 9.08233 11.0569 8.84181 11.4844 8.54508C11.9119 8.24836 12.1254 7.88611 12.125 7.45833V8.91667C12.125 9.34445 11.9115 9.7067 11.4844 10.0034C11.0573 10.3001 10.5469 10.5407 9.95313 10.725C9.35938 10.9093 8.74229 11.0431 8.10188 11.1263C7.46146 11.2096 6.9275 11.2508 6.5 11.25C6.0725 11.2492 5.53875 11.2078 4.89875 11.1258C4.25875 11.0437 3.64146 10.9101 3.04688 10.725C2.45229 10.5399 1.94188 10.2994 1.51563 10.0034C1.08938 9.70747 0.875833 9.34522 0.875 8.91667V7.45833C0.875 7.88611 1.08854 8.24836 1.51563 8.54508C1.94271 8.84181 2.45313 9.08233 3.04688 9.26667C3.64063 9.451 4.25792 9.58478 4.89875 9.668C5.53958 9.75122 6.07333 9.79245 6.5 9.79167Z" fill="black"/>
</svg>
